<!DOCTYPE svg PUBLIC "-//W3C//DTD SVG 1.1//EN" "http://www.w3.org/Graphics/SVG/1.1/DTD/svg11.dtd">

<!-- Uploaded to: SVG Repo, www.svgrepo.com, Transformed by: SVG Repo Mixer Tools -->
<svg height="800px" width="800px" version="1.1" id="Capa_1" xmlns="http://www.w3.org/2000/svg" xmlns:xlink="http://www.w3.org/1999/xlink" viewBox="0 0 379.279 379.279" xml:space="preserve" fill="#000000">

<g id="SVGRepo_bgCarrier" stroke-width="0"/>

<g id="SVGRepo_tracerCarrier" stroke-linecap="round" stroke-linejoin="round"/>

<g id="SVGRepo_iconCarrier"> <g> <path style="fill:#0D9488;" d="M338.145,30.677c8.47,0,15.339-6.869,15.339-15.339S346.615,0,338.145,0H302.94H193.7H76.34h-9.112 H41.135c-8.47,0-15.339,6.869-15.339,15.339s6.869,15.339,15.339,15.339h12.551v87.846H41.135c-8.47,0-15.339,6.869-15.339,15.339 S32.665,149.2,41.135,149.2h12.551v87.846H41.135c-8.47,0-15.339,6.869-15.339,15.339c0,8.47,6.869,15.339,15.339,15.339h12.551 v80.879H41.135c-8.47,0-15.339,6.869-15.339,15.339c0,8.47,6.869,15.339,15.339,15.339h297.01c8.47,0,15.339-6.869,15.339-15.339 c0-8.47-6.869-15.339-15.339-15.339h-12.551v-80.879h12.551c8.47,0,15.339-6.869,15.339-15.339c0-8.47-6.869-15.339-15.339-15.339 h-12.551v-87.837h12.551c8.47,0,15.339-6.869,15.339-15.339s-6.869-15.339-15.339-15.339h-12.551V30.677H338.145z M189.636,332.418 c-160.434,0-66.378-181.129-20.598-256.066c11.941-19.541,20.598-31.88,20.598-31.88s1.496,2.138,4.064,5.966 C221.223,91.528,374.658,332.418,189.636,332.418z"/> <path style="fill:#0D9488;" d="M215.444,306.512c33.758-15.582,41.659-51.933,33.408-85.529c-4.519-18.411-32.88-10.6-28.361,7.82 c5.34,21.744,1.87,42.277-19.891,52.316C183.393,289.06,198.349,314.405,215.444,306.512z"/> </g> </g>

</svg>